<?xml version="1.0" standalone="no"?>
<!DOCTYPE svg PUBLIC "-//W3C//DTD SVG 1.1//EN" "http://www.w3.org/Graphics/SVG/1.1/DTD/svg11.dtd">
<svg xmlns="http://www.w3.org/2000/svg" id="icon" viewBox="0 0 360 360" width="360" height="360"><path d="m315.83,58.95c.38.38.88.59,1.42.59h.01c.54,0,1.05-.22,1.42-.6l9.83-10.08c.76-.78.76-2.04-.02-2.81l-17.66-17.67c-.38-.38-.88-.59-1.42-.59s-1.04.21-1.41.59l-9.96,9.95c-.78.78-.78,2.05,0,2.83l1.15,1.15-4.06,4.22-1.19-1.17c-.78-.77-2.04-.76-2.81.02l-25.11,25.13H32.93c-1.1,0-2,.9-2,2v215c0,1.1.9,2,2,2h289c1.1,0,2-.9,2-2V72.5c0-1.1-.9-2-2-2h-14.35l4.53-4.5c.38-.38.59-.89.59-1.43s-.22-1.05-.6-1.42l-1.22-1.19,3.9-4.05,1.04,1.04Zm-6.41-26.33l14.85,14.86-7.04,7.22-14.94-14.95,7.13-7.13Zm10.51,41.88v211H34.93V74.5h227.09l-74.83,74.88c-.18.18-.33.4-.43.63l-12.72,29.93c-.25.6-.19,1.27.14,1.81-.02.11-.03.22-.03.33,0,1.1.9,2,2,2h67.29c1.1,0,2-.9,2-2s-.9-2-2-2h-60.81l24.88-10.37c.24-.1.46-.24.64-.43l95.42-94.78h16.37Zm-132.69,99.32l-4.39-4.39,6.69-15.75,13.8,13.43-16.11,6.71Zm19.61-8.89l-14.98-14.58,76.39-76.44s0,0,0,0l24.29-24.31,9.06,8.88-41.51,41.22c-.78.78-.79,2.04,0,2.83.39.39.9.59,1.42.59s1.02-.19,1.41-.58l41.55-41.26,3.38,3.32-101.01,100.34Zm101.18-105.77l-10.04-9.84,4.03-4.19,9.94,9.95-3.93,4.08Z" fill="#333"/><path d="m69.91,132.44c.51,0,1.02-.2,1.41-.59l34.4-34.4h15.72c1.1,0,2-.9,2-2s-.9-2-2-2h-16.54c-.53,0-1.04.21-1.41.59l-34.99,34.99c-.78.78-.78,2.05,0,2.83.39.39.9.59,1.41.59Z" fill="#333"/><path d="m276.43,141.09v72.91c-.01,1.1.88,2,1.99,2s2-.9,2-2v-73.7c.01-.51-.18-1-.53-1.37l-11.05-11.79c-.75-.81-2.02-.85-2.83-.09-.81.76-.85,2.02-.09,2.83l10.51,11.22Z" fill="#333"/><path d="m92.1,139l13.18-13.18h15.72c1.1,0,2-.9,2-2s-.9-2-2-2h-16.54c-.53,0-1.04.21-1.41.59l-15.57,15.57c-.38.38-.59.88-.59,1.41v75.45c0,1.1.9,2,2,2h57.11c1.1,0,2-.9,2-2s-.9-2-2-2h-55.11v-19.92h67.48l13.95,21.65c.37.57,1,.92,1.68.92h40.08c.88,3.18,3.78,5.52,7.24,5.52,4.15,0,7.52-3.37,7.52-7.52s-3.37-7.52-7.52-7.52c-3.46,0-6.36,2.34-7.24,5.52h-38.99l-13.95-21.65c-.37-.57-1-.92-1.68-.92h-68.58v-13.18h46.4v1c0,1.1.9,2,2,2h16c1.1,0,2-.9,2-2v-6c0-1.1-.9-2-2-2h-16c-1.1,0-2,.9-2,2v1h-46.4v-12.37h46.4v1c0,1.1.9,2,2,2h16c1.1,0,2-.9,2-2v-6c0-1.1-.9-2-2-2h-16c-1.1,0-2,.9-2,2v1h-46.4v-12.37h46.4v1c0,1.1.9,2,2,2h16c1.1,0,2-.9,2-2v-6c0-1.1-.9-2-2-2h-16c-1.1,0-2,.9-2,2v1h-45.18Z" fill="#333"/><path d="m297.34,226.8c4.15,0,7.52-3.37,7.52-7.52,0-3.46-2.34-6.37-5.52-7.24v-91.47c0-1.1-.9-2-2-2s-2,.9-2,2v91.47c-3.18.88-5.52,3.78-5.52,7.24,0,4.15,3.37,7.52,7.52,7.52Z" fill="#333"/><path d="m146.5,102.97c3.46,0,6.36-2.34,7.24-5.52h68.69c1.1,0,2-.9,2-2s-.9-2-2-2h-68.69c-.88-3.18-3.78-5.52-7.24-5.52-4.15,0-7.52,3.37-7.52,7.52s3.37,7.52,7.52,7.52Z" fill="#333"/><path d="m183.2,262.55H59.52v-106.79c3.18-.88,5.52-3.78,5.52-7.24,0-4.15-3.37-7.52-7.52-7.52s-7.52,3.37-7.52,7.52c0,3.46,2.34,6.37,5.52,7.24v108.79c0,1.1.9,2,2,2h125.69c1.1,0,2-.9,2-2s-.9-2-2-2Z" fill="#333"/><path d="m272.62,246.24c-4.86,0-8.93,3.47-9.86,8.06h-42.82l-17.99-17.99c-.38-.38-.88-.59-1.41-.59h-72.2c-.88-3.18-3.78-5.52-7.24-5.52-4.15,0-7.52,3.37-7.52,7.52s3.37,7.52,7.52,7.52c3.46,0,6.36-2.34,7.24-5.52h71.37l17.99,17.99c.38.38.88.59,1.41.59h43.65c.93,4.59,5,8.06,9.86,8.06,5.55,0,10.06-4.51,10.06-10.06s-4.51-10.06-10.06-10.06Zm0,16.12c-3.34,0-6.06-2.72-6.06-6.06s2.72-6.06,6.06-6.06,6.06,2.72,6.06,6.06-2.72,6.06-6.06,6.06Z" fill="#333"/></svg>